PathFileType	4	(X/Y/Z)	/Users/itak/Documents/Research/Walk-IL/dataset/trc/00021_00004.trc
DataRate	CameraRate	NumFrames	NumMarkers	Units	OrigDataRate	OrigDataStartFrame	OrigNumFrames
100.000000	100.000000	4	53	mm	100.000000	98	785
Frame#	Time	RPSI			LPSI			L3			STRN			T10			C7			CLAV			RBAK			LBAK			LSHO			LUPA			LAEL			LAOL			LWTS			LWPS			LFRA			LIFD			LHPS			LHTS			RSHO			RUPA			RAEL			RAOL			RWTS			RWPS			RFRA			RIFD			RHTS			RHPS			RBHD			LFHD			RFHD			LBHD			LHIP			RHIP			RASI			LASI			LKNE			LTHI			LANK			LTIP			LTOE			LMT1			LMT5			LHEE			RKNE			RTHI			RANK			RTIP			RTOE			RMT1			RMT5			RHEE			
		X1	Y1	Z1	X2	Y2	Z2	X3	Y3	Z3	X4	Y4	Z4	X5	Y5	Z5	X6	Y6	Z6	X7	Y7	Z7	X8	Y8	Z8	X9	Y9	Z9	X10	Y10	Z10	X11	Y11	Z11	X12	Y12	Z12	X13	Y13	Z13	X14	Y14	Z14	X15	Y15	Z15	X16	Y16	Z16	X17	Y17	Z17	X18	Y18	Z18	X19	Y19	Z19	X20	Y20	Z20	X21	Y21	Z21	X22	Y22	Z22	X23	Y23	Z23	X24	Y24	Z24	X25	Y25	Z25	X26	Y26	Z26	X27	Y27	Z27	X28	Y28	Z28	X29	Y29	Z29	X30	Y30	Z30	X31	Y31	Z31	X32	Y32	Z32	X33	Y33	Z33	X34	Y34	Z34	X35	Y35	Z35	X36	Y36	Z36	X37	Y37	Z37	X38	Y38	Z38	X39	Y39	Z39	X40	Y40	Z40	X41	Y41	Z41	X42	Y42	Z42	X43	Y43	Z43	X44	Y44	Z44	X45	Y45	Z45	X46	Y46	Z46	X47	Y47	Z47	X48	Y48	Z48	X49	Y49	Z49	X50	Y50	Z50	X51	Y51	Z51	X52	Y52	Z52	X53	Y53	Z53	

99	0.98	140.470703125	1055.84716796875	1158.325317382812	116.0446395874023	1044.017333984375	996.9129028320312	125.9621810913086	1108.74755859375	1070.296264648438	365.4132385253906	1276.47216796875	1034.535766601562	116.6504135131836	1255.327392578125	1072.75341796875	190.0525207519531	1515.895629882812	1040.451782226562	334.9313049316406	1405.361938476562	1028.27490234375	134.9392547607422	1390.219360351562	1136.090209960938	152.1330871582031	1472.51318359375	950.9662475585938	239.3627166748047	1464.032348632812	862.368408203125	182.4497985839844	1341.149780273438	798.637939453125	154.25634765625	1125.430297851562	786.4210205078125	126.4709243774414	1118.535522460938	890.37109375	246.2886810302734	870.4686889648438	817.0316162109375	158.7518005371094	856.3319091796875	809.08642578125	158.3812866210938	1008.043701171875	780.8058471679688	273.5379943847656	683.073486328125	839.2625732421875	187.7302856445312	764.5349731445312	803.6746215820312	258.8862609863281	772.77587890625	803.7789306640625	288.7536315917969	1500.041015625	1199.397216796875	280.4697875976562	1438.777465820312	1278.944580078125	222.1417083740234	1178.808471679688	1334.706176757812	201.8313293457031	1143.9716796875	1242.525390625	324.2965393066406	903.93310546875	1312.999389648438	268.6115417480469	900.6655883789062	1386.2060546875	230.4060974121094	1102.827026367188	1355.464721679688	337.3613586425781	713.981689453125	1323.602661132812	352.8089904785156	793.9920654296875	1333.88916015625	304.1783142089844	798.8961181640625	1390.346923828125	331.3111877441406	1685.00830078125	1096.813110351562	394.4647827148438	1669.522827148438	896.1661987304688	455.1166381835938	1672.979370117188	973.5337524414062	237.5785369873047	1684.187622070312	987.0352783203125	201.683349609375	938.4353637695312	870.37060546875	247.9631195068359	927.6983642578125	1244.244873046875	350.2821044921875	952.669921875	1161.854614257812	318.8861694335938	978.8258056640625	929.35546875	409.4878234863281	546.2730102539062	881.5213623046875	322.5603942871094	653.0203857421875	859.96875	488.76318359375	53.79457092285156	891.0807495117188	413.0966491699219	291.0182189941406	878.8828735351562	698.9204711914062	129.5979766845703	867.77978515625	654.1854858398438	116.2958679199219	906.315185546875	586.6110229492188	96.69878387451172	826.6769409179688	446.3074951171875	41.13143920898438	964.0873413085938	154.1153259277344	504.4312438964844	1210.021362304688	236.7911071777344	763.6136474609375	1239.531860351562	-90.15436553955078	64.26038360595703	1194.468505859375	94.48240661621094	389.8102722167969	1212.846435546875	138.4898223876953	44.03238677978516	1157.6416015625	77.01322174072266	52.33046340942383	1127.489990234375	55.89836502075195	42.11063766479492	1221.80712890625	-145.3491363525391	77.25204467773438	1151.357299804688	
100	0.99	146.9149169921875	1054.98974609375	1155.182495117188	122.5318984985352	1042.636108398438	993.8268432617188	132.4666900634766	1107.609497070312	1067.014038085938	371.7110900878906	1275.371704101562	1030.498046875	123.0086898803711	1254.265258789062	1068.963134765625	196.3471069335938	1514.763793945312	1036.03564453125	341.2257690429688	1404.231567382812	1023.953491210938	141.3417053222656	1389.290283203125	1131.981567382812	158.346923828125	1471.18212890625	946.6822509765625	245.5031280517578	1462.510131835938	857.9973754882812	188.4338836669922	1339.483520507812	794.6127319335938	160.0012664794922	1123.758544921875	783.0090942382812	132.4674072265625	1117.149047851562	887.0960693359375	251.7333374023438	868.7294921875	813.9256591796875	164.2556762695312	854.6616821289062	806.3719482421875	163.906494140625	1006.341125488281	777.6751098632812	278.7838745117188	681.3641967773438	836.6817626953125	192.9598999023438	762.8063354492188	801.5386352539062	264.0871276855469	770.9514770507812	800.9340209960938	295.158203125	1499.199096679688	1194.9423828125	286.9555358886719	1438.061157226562	1274.61572265625	229.3282928466797	1178.171264648438	1331.2548828125	208.7997741699219	1143.015380859375	1239.090087890625	332.1569519042969	903.5167236328125	1309.83837890625	276.5841369628906	900.249267578125	1383.174926757812	237.7492065429688	1102.212646484375	1352.082153320312	345.8963623046875	713.6687622070312	1320.885498046875	361.0968017578125	793.7372436523438	1330.928344726562	312.5137329101562	798.5919799804688	1387.48193359375	337.6971740722656	1683.724731445312	1092.380493164062	400.2847900390625	1668.59228515625	891.5126342773438	461.1618041992188	1672.015869140625	968.71337890625	243.6432037353516	1682.945922851562	982.878173828125	208.1508636474609	936.767578125	867.596435546875	254.6359252929688	927.3031005859375	1241.426391601562	356.9053955078125	951.9737548828125	1159.037109375	325.4379577636719	977.4202880859375	926.4175415039062	416.0980529785156	545.2769165039062	877.98486328125	329.0625915527344	651.7306518554688	856.9496459960938	498.2024841308594	53.43981170654297	886.3673706054688	420.8008117675781	290.1777648925781	875.1099243164062	707.4735717773438	131.0564727783203	859.5962524414062	663.4306640625	117.4011306762695	898.865234375	594.6644897460938	97.24037933349609	820.395263671875	457.1976013183594	40.37106323242188	960.12109375	159.5000305175781	504.2270812988281	1208.887817382812	242.9589385986328	763.3357543945312	1237.2587890625	-89.65037536621094	65.76584625244141	1194.396240234375	98.79383087158203	389.8572387695312	1212.034545898438	138.6419982910156	44.07321929931641	1157.661499023438	77.21475982666016	52.57284927368164	1127.617309570312	56.2515754699707	42.07967376708984	1221.948852539062	-144.773681640625	79.62367248535156	1151.526733398438	
101	1	153.5807800292969	1054.160888671875	1151.939331054688	129.2157745361328	1041.3125	990.640625	139.1586608886719	1106.515991210938	1063.626953125	378.1788635253906	1274.330322265625	1026.32373046875	129.5290679931641	1253.249267578125	1065.044677734375	202.7752380371094	1513.67578125	1031.441528320312	347.6791076660156	1403.162841796875	1019.468505859375	147.8863677978516	1388.415283203125	1127.711669921875	164.6952362060547	1469.87060546875	942.2169799804688	251.7926635742188	1461.010864257812	853.4595336914062	194.5833129882812	1337.822509765625	790.4209594726562	165.9547882080078	1122.10302734375	779.4530029296875	138.6103820800781	1115.791015625	883.6464233398438	257.3389587402344	866.996337890625	810.7702026367188	169.9096221923828	853.0093994140625	803.5342407226562	169.6322326660156	1004.657775878906	774.4175415039062	284.1180725097656	679.66015625	834.1023559570312	198.3317565917969	761.1080932617188	799.2704467773438	269.4447631835938	769.1322631835938	798.0570678710938	301.6957397460938	1498.444946289062	1190.310546875	293.5542602539062	1437.446044921875	1270.1162109375	236.6044464111328	1177.6708984375	1327.664672851562	215.854736328125	1142.171142578125	1235.491088867188	340.0350341796875	903.1942138671875	1306.564086914062	284.5624694824219	899.9511108398438	1380.018920898438	245.1476135253906	1101.716796875	1348.53857421875	354.4101867675781	713.4519653320312	1318.063354492188	369.3800048828125	793.5809936523438	1327.880249023438	320.8160095214844	798.4022827148438	1384.501831054688	344.1682434082031	1682.50537109375	1087.785278320312	406.2164916992188	1667.738525390625	886.7010498046875	467.2998352050781	1671.145263671875	963.7347412109375	249.8113250732422	1681.759033203125	978.5567626953125	214.8378753662109	935.1783447265625	864.7244262695312	261.5108642578125	926.9541625976562	1238.4921875	363.7192687988281	951.335205078125	1156.136840820312	332.1898803710938	976.0769653320312	923.3889770507812	422.9430541992188	544.2218017578125	874.232421875	335.7864685058594	650.5357055664062	853.7354736328125	506.4088134765625	52.76399612426758	882.0540771484375	428.0661315917969	289.2035217285156	871.406982421875	714.9746704101562	131.4969787597656	851.953125	671.5667114257812	117.6683654785156	891.9127197265625	601.6331176757812	97.08778381347656	814.58251953125	466.7638854980469	39.49444961547852	956.52392578125	165.1199340820312	504.0501403808594	1207.703491210938	249.3319549560547	763.099365234375	1234.894653320312	-89.06082916259766	67.38904571533203	1194.254516601562	103.283805847168	389.9600219726562	1211.1943359375	138.8118438720703	44.09580993652344	1157.679931640625	77.46108245849609	52.85494613647461	1127.72412109375	56.60622024536133	42.04375457763672	1222.088623046875	-144.0940246582031	82.19398498535156	1151.642700195312	
102	1.01	160.4756469726562	1053.364013671875	1148.5888671875	136.1048736572266	1040.04541015625	987.3519287109375	146.0430297851562	1105.469116210938	1060.12890625	384.829833984375	1273.353759765625	1022.005859375	136.2175140380859	1252.280517578125	1061.001831054688	209.3361968994141	1512.630981445312	1026.671020507812	354.2930297851562	1402.161254882812	1014.816772460938	154.5814666748047	1387.59375	1123.284545898438	171.1782836914062	1468.578369140625	937.5753784179688	258.2260131835938	1459.5400390625	848.7545166015625	200.8943481445312	1336.1728515625	786.0665893554688	172.1130065917969	1120.471923828125	775.7555541992188	144.9026947021484	1114.46533203125	880.0287475585938	263.1063842773438	865.276123046875	807.5636596679688	175.6925506591797	851.3868408203125	800.5809326171875	175.5605010986328	1003.001403808594	771.035400390625	289.546142578125	677.9699096679688	831.5115356445312	203.8484649658203	759.4497680664062	796.827880859375	274.9606018066406	767.3284301757812	795.1407470703125	308.3796997070312	1497.781982421875	1185.498413085938	300.28564453125	1436.938598632812	1265.444702148438	243.9699249267578	1177.31787109375	1323.925048828125	222.9996643066406	1141.452514648438	1231.731811523438	347.9190979003906	902.9717407226562	1303.172729492188	292.5455627441406	899.7772827148438	1376.736083984375	252.5991821289062	1101.349609375	1344.833374023438	362.86181640625	713.328857421875	1315.128295898438	377.6324462890625	793.520263671875	1324.728759765625	329.0708923339844	798.3294677734375	1381.403564453125	350.7272033691406	1681.356201171875	1083.024169921875	412.2517395019531	1666.968139648438	881.7274780273438	473.5285339355469	1670.371704101562	958.590576171875	256.0798034667969	1680.629760742188	974.072021484375	221.7420043945312	933.6655883789062	861.7423095703125	268.6038513183594	926.6497192382812	1235.430297851562	370.7465515136719	950.7557983398438	1153.131103515625	339.1429748535156	974.8001708984375	920.2518310546875	429.9900207519531	543.0814208984375	870.3030395507812	342.6884460449219	649.4026489257812	850.3353881835938	513.3952026367188	51.75341415405273	878.1616821289062	434.8885803222656	288.0806274414062	867.8065185546875	721.4722290039062	130.901123046875	845.0008544921875	678.61767578125	117.0721740722656	885.5816040039062	607.590087890625	96.22407531738281	809.3234252929688	474.9616088867188	38.47008514404297	953.294921875	170.9716033935547	503.90673828125	1206.462158203125	255.9186553955078	762.9017944335938	1232.429321289062	-88.33760833740234	69.2315673828125	1194.100219726562	107.9442596435547	390.1241455078125	1210.325073242188	138.9975280761719	44.10094833374023	1157.697265625	77.76286315917969	53.18237686157227	1127.802856445312	56.95452880859375	42.01631927490234	1222.221801757812	-143.2904663085938	84.98773956298828	1151.724853515625	
